<?xml version="1.0" encoding="utf-8"?>
<!-- Generator: Adobe Illustrator 18.1.1, SVG Export Plug-In . SVG Version: 6.00 Build 0)  -->
<svg version="1.1" id="Layer_1" xmlns="http://www.w3.org/2000/svg" xmlns:xlink="http://www.w3.org/1999/xlink" x="0px" y="0px"
	 viewBox="0 0 1280 800" enable-background="new 0 0 1280 800" xml:space="preserve">
<g>
	<path fill="#FFFFFF" d="M640,800L640,800c-49.1,0-87.5-38.4-87.5-87.5V87.5C552.5,38.4,590.9,0,640,0l0,0
		c49.1,0,87.5,38.4,87.5,87.5v625.1C727.5,759.5,689.1,800,640,800z"/>
</g>
<g>
	<path fill="#FFFFFF" d="M381.9,701.9L381.9,701.9c-49.1,0-87.5-38.4-87.5-87.5V185.6c0-49.1,38.4-87.5,87.5-87.5l0,0
		c49.1,0,87.5,38.4,87.5,87.5v428.8C469.3,663.5,430.9,701.9,381.9,701.9z"/>
</g>
<g>
	<path fill="#FFFFFF" d="M896,701.9L896,701.9c-49.1,0-87.5-38.4-87.5-87.5V185.6c0-49.1,38.4-87.5,87.5-87.5l0,0
		c49.1,0,87.5,38.4,87.5,87.5v428.8C983.5,663.5,945.1,701.9,896,701.9z"/>
</g>
<g>
	<path fill="#FFFFFF" d="M1154.1,529.1L1154.1,529.1c-49.1,0-87.5-38.4-87.5-87.5v-83.2c0-49.1,38.4-87.5,87.5-87.5l0,0
		c49.1,0,87.5,38.4,87.5,87.5v83.2C1241.6,488.5,1203.2,529.1,1154.1,529.1z"/>
</g>
<g>
	<path fill="#FFFFFF" d="M125.9,529.1L125.9,529.1c-49.1,0-87.5-38.4-87.5-87.5v-83.2c0-49.1,38.4-87.5,87.5-87.5l0,0
		c49.1,0,87.5,38.4,87.5,87.5v83.2C213.3,488.5,174.9,529.1,125.9,529.1z"/>
</g>
</svg>
