<?xml version="1.0" encoding="utf-8"?>
<!-- Generator: Adobe Illustrator 18.1.1, SVG Export Plug-In . SVG Version: 6.00 Build 0)  -->
<svg version="1.1" id="Layer_1" xmlns="http://www.w3.org/2000/svg" xmlns:xlink="http://www.w3.org/1999/xlink" x="0px" y="0px"
	 viewBox="0 0 1280 800" enable-background="new 0 0 1280 800" xml:space="preserve">
<g>
	<path fill="#ECECEC" d="M659.3,161h-38.7c-5.7,0-11-2.6-14.7-7.1c-3.9-4.8-5.4-11-4.1-17.1l6.7-33c1.9-9.2,9.8-15.8,18.8-15.8h25.2
		c9,0,17,6.7,18.8,15.8l6.7,33c1.2,6.1-0.3,12.3-4.1,17.1C670.3,158.4,664.9,161,659.3,161z M627.3,95c-5.7,0-10.8,4.3-12,10.2
		l-6.7,33c-0.8,4,0.2,8.1,2.7,11.3c2.3,2.9,5.7,4.5,9.3,4.5h38.7c3.6,0,6.9-1.6,9.3-4.5c2.5-3.1,3.5-7.2,2.7-11.3l-6.7-33
		c-1.2-5.9-6.2-10.2-12-10.2H627.3z"/>
	<path fill="#ECECEC" d="M639.9,184.3c-12.3,0-22.4-8.3-22.4-19.3h7c0,7,6.9,12.3,15.4,12.3c8.5,0,15.4-5.3,15.4-12.3h7
		C662.3,176,652.3,184.3,639.9,184.3z"/>
	<path fill="#ECECEC" d="M639.9,208.9c-21.9,0-39.6-14.9-39.6-31.9h7c0,13,14.6,24.9,32.6,24.9c18,0,32.6-11.9,32.6-24.9h7
		C679.5,194,661.8,208.9,639.9,208.9z"/>
</g>
<g>
	<path fill="#ECECEC" d="M1039.4,177h-38.7c-5.7,0-11-2.6-14.7-7.1c-3.9-4.8-5.4-11-4.1-17.1l6.7-33c1.9-9.2,9.8-15.8,18.8-15.8
		h25.2c9,0,17,6.7,18.8,15.8l6.7,33c1.2,6.1-0.3,12.3-4.1,17.1C1050.4,174.4,1045,177,1039.4,177z M1007.4,111
		c-5.7,0-10.8,4.3-12,10.2l-6.7,33c-0.8,4,0.2,8.1,2.7,11.3c2.3,2.9,5.7,4.5,9.3,4.5h38.7c3.6,0,6.9-1.6,9.3-4.5
		c2.5-3.1,3.5-7.2,2.7-11.3l-6.7-33c-1.2-5.9-6.2-10.2-12-10.2H1007.4z"/>
	<path fill="#ECECEC" d="M1020,200.3c-12.3,0-22.4-8.3-22.4-19.3h7c0,7,6.9,12.3,15.4,12.3c8.5,0,15.4-5.3,15.4-12.3h7
		C1042.4,192,1032.3,200.3,1020,200.3z"/>
	<path fill="#ECECEC" d="M1020,224.9c-21.9,0-39.6-14.9-39.6-31.9h7c0,13,14.6,24.9,32.6,24.9c18,0,32.6-11.9,32.6-24.9h7
		C1059.6,210,1041.9,224.9,1020,224.9z"/>
</g>
<g>
	<path fill="#ECECEC" d="M279.4,177h-38.7c-5.7,0-11-2.6-14.7-7.1c-3.9-4.8-5.4-11-4.1-17.1l6.7-33c1.9-9.2,9.8-15.8,18.8-15.8h25.2
		c9,0,17,6.7,18.8,15.8l6.7,33c1.2,6.1-0.3,12.3-4.1,17.1C290.4,174.4,285,177,279.4,177z M247.4,111c-5.7,0-10.8,4.3-12,10.2
		l-6.7,33c-0.8,4,0.2,8.1,2.7,11.3c2.3,2.9,5.7,4.5,9.3,4.5h38.7c3.6,0,6.9-1.6,9.3-4.5c2.5-3.1,3.5-7.2,2.7-11.3l-6.7-33
		c-1.2-5.9-6.2-10.2-12-10.2H247.4z"/>
	<path fill="#ECECEC" d="M260,200.3c-12.3,0-22.4-8.3-22.4-19.3h7c0,7,6.9,12.3,15.4,12.3c8.5,0,15.4-5.3,15.4-12.3h7
		C282.4,192,272.3,200.3,260,200.3z"/>
	<path fill="#ECECEC" d="M260,224.9c-21.9,0-39.6-14.9-39.6-31.9h7c0,13,14.6,24.9,32.6,24.9c18,0,32.6-11.9,32.6-24.9h7
		C299.6,210,281.9,224.9,260,224.9z"/>
</g>
<g>
	<path fill="#ECECEC" d="M255.9,687.2l27.4,27.4c4,4,6,9.6,5.4,15.4c-0.6,6.1-4,11.6-9.1,15l-28.1,18.6c-7.8,5.2-18.1,4.3-24.5-2.1
		l-17.8-17.8c-6.4-6.4-7.3-16.7-2.1-24.5l18.6-28.1c3.4-5.2,8.9-8.5,15-9.1C246.3,681.3,251.9,683.2,255.9,687.2z M231.8,756.5
		c4,4,10.7,4.6,15.7,1.2l28.1-18.6c3.4-2.3,5.6-5.9,6-9.9c0.4-3.7-0.9-7.2-3.4-9.7l-27.4-27.4c-2.5-2.5-6.1-3.7-9.7-3.4
		c-4,0.4-7.6,2.6-9.9,6L212.8,723c-3.3,5.1-2.8,11.7,1.2,15.7L231.8,756.5z"/>
	<path fill="#ECECEC" d="M284.6,685.9c8.7,8.7,10,21.7,2.2,29.5l-4.9-4.9c4.9-4.9,3.8-13.6-2.2-19.6c-6-6-14.6-7.1-19.6-2.2
		l-4.9-4.9C262.9,675.9,275.9,677.2,284.6,685.9z"/>
	<path fill="#ECECEC" d="M302,668.5c15.5,15.5,17.5,38.6,5.4,50.6l-4.9-4.9c9.2-9.2,7.3-28-5.4-40.7c-12.7-12.7-31.5-14.6-40.7-5.4
		l-4.9-4.9C263.4,651,286.6,653,302,668.5z"/>
</g>
<g>
	<path fill="#ECECEC" d="M996.7,714.6l27.4-27.4c4-4,9.6-6,15.4-5.4c6.1,0.6,11.6,4,15,9.1l18.6,28.1c5.2,7.8,4.3,18.1-2.1,24.5
		l-17.8,17.8c-6.4,6.4-16.7,7.3-24.5,2.1l-28.1-18.6c-5.2-3.4-8.5-8.9-9.1-15C990.8,724.2,992.7,718.6,996.7,714.6z M1066,738.7
		c4-4,4.6-10.7,1.2-15.7l-18.6-28.1c-2.3-3.4-5.9-5.6-9.9-6c-3.7-0.4-7.2,0.9-9.7,3.4l-27.4,27.4c-2.5,2.5-3.7,6.1-3.4,9.7
		c0.4,4,2.6,7.6,6,9.9l28.1,18.6c5.1,3.3,11.7,2.8,15.7-1.2L1066,738.7z"/>
	<path fill="#ECECEC" d="M995.4,685.9c8.7-8.7,21.7-10,29.5-2.2l-4.9,4.9c-4.9-4.9-13.6-3.8-19.6,2.2c-6,6-7.1,14.6-2.2,19.6
		l-4.9,4.9C985.4,707.6,986.7,694.6,995.4,685.9z"/>
	<path fill="#ECECEC" d="M978,668.5c15.5-15.5,38.6-17.5,50.6-5.4l-4.9,4.9c-9.2-9.2-28-7.3-40.7,5.4c-12.7,12.7-14.6,31.5-5.4,40.7
		l-4.9,4.9C960.5,707.1,962.5,683.9,978,668.5z"/>
</g>
</svg>
